<svg width="44" height="44" viewBox="0 0 44 44" fill="none" xmlns="http://www.w3.org/2000/svg">
<path fill-rule="evenodd" clip-rule="evenodd" d="M14.6094 9.36717H1.93359C1.4502 9.36717 1.05273 9.76463 1.05273 10.248V17.6279H0.966797C0.43327 17.6279 3.8147e-06 18.0648 3.8147e-06 18.5947V19.6725C3.8147e-06 20.2132 0.444012 20.6536 0.981121 20.6536H7.78451C2.72852 21.1048 -0.161129 25.8063 0.153973 31.9186H4.65137C4.65495 34.8655 7.04688 37.2503 9.99382 37.2503C12.9408 37.2503 15.3327 34.862 15.3363 31.9186H29.0755C29.0791 31.8219 29.0827 31.7288 29.0863 31.6321C29.0755 32.2803 29.1149 32.9678 29.208 33.7018L41.182 28.0622L44 26.7301C41.737 24.1556 39.0085 23.0742 35.707 23.819C35.1986 23.9479 34.7188 24.0983 34.264 24.2702C34.7295 24.0911 35.2201 23.9407 35.7357 23.8118L31.9688 11.4046L33.6696 11.3724C34.0205 11.3652 34.4001 11.4619 34.64 11.29C35.0553 11.2793 35.417 11.0286 35.6676 10.6348C35.8932 10.2838 36.0293 9.80402 36.0293 9.28124C36.0293 8.75845 35.8896 8.27863 35.6676 7.92772C35.4814 7.63768 35.238 7.42642 34.9587 7.32974C34.9551 7.27245 34.9515 7.23306 34.9443 7.22232C34.5433 6.58137 33.7627 6.77473 33.068 6.77473L32.3913 6.81769C31.9007 6.87857 31.4209 7.0397 30.959 7.30467L30.1855 7.73794H29.5589L27.4535 8.14615C26.766 8.27863 26.6657 8.22134 26.8268 9.06997C26.8483 9.1774 26.8734 9.28482 26.9092 9.38866C27.1169 10.0081 27.2816 9.77896 27.9225 9.64647L29.8955 9.23827C29.8203 10.0332 30.071 11.0071 30.4255 12.1458C29.2904 13.1055 28.7819 14.4733 29.5553 16.2744L31.4388 22.0788C28.2806 24.3167 26.3828 26.3434 26.2754 29.6699H22.0967C19.5221 27.7184 19.9482 24.2451 22.7734 22.0251V20.6572V18.5661C22.7699 17.9036 22.4154 17.6064 21.7565 17.6243H15.4902V10.248C15.4902 9.76463 15.0928 9.36717 14.6094 9.36717ZM11.5299 16.2923H5.00944C4.95931 16.2923 4.91634 16.3353 4.91634 16.3854V16.5716C4.91634 16.6217 4.95931 16.6647 5.00944 16.6647H11.5299C11.5801 16.6647 11.623 16.6217 11.623 16.5716V16.3854C11.623 16.3353 11.5837 16.2923 11.5299 16.2923ZM7.99935 12.2389C6.09082 12.3929 4.70866 13.8288 4.94857 15.7194H11.5944C11.8271 13.818 10.4414 12.3786 8.51856 12.2389V11.7054H9.0485C9.10221 11.7054 9.14518 11.6624 9.14518 11.6087V11.2614C9.14518 11.2077 9.10221 11.1647 9.0485 11.1647H7.48372C7.43001 11.1647 7.38705 11.2077 7.38705 11.2614V11.6087C7.38705 11.6624 7.43001 11.7054 7.48372 11.7054H8.00293V12.2389H7.99935ZM41.1676 28.0693L36.4053 30.3252L37.9521 29.6162C39.0156 29.8418 39.8105 30.7871 39.8105 31.915C39.8105 33.2148 38.7578 34.2676 37.458 34.2676C36.1582 34.2676 35.1055 33.2148 35.1055 31.915C35.1055 31.514 35.2057 31.138 35.3812 30.805L32.1299 32.3447C32.3483 35.0947 34.6507 37.2575 37.4544 37.2575C40.4049 37.2575 42.7969 34.8655 42.7969 31.915C42.804 30.404 42.1774 29.0397 41.1676 28.0693ZM34.9515 8.24641C34.93 8.93391 34.8835 9.81835 34.8512 10.4127C34.9085 10.3626 34.9658 10.2982 35.016 10.2158C35.1663 9.98306 35.2559 9.65005 35.2559 9.27766C35.2559 8.90526 35.1628 8.57225 35.016 8.3395C34.9945 8.30728 34.973 8.27505 34.9515 8.24641ZM12.3464 31.9222H7.64128C7.64486 33.2184 8.69759 34.264 9.99382 34.264C11.29 34.2676 12.3428 33.2184 12.3464 31.9222Z" fill="#495e57"/>
</svg>
